<?xml version="1.0" encoding="UTF-8"?>
<svg xmlns="http://www.w3.org/2000/svg" viewBox="0 0 113.15 108.48">
  <defs>
    <style>
      .cls-1 {
        fill: #173051;
        stroke: #173051;
        stroke-miterlimit: 10;
        stroke-width: 5px;
      }
    </style>
  </defs>
  <g id="Layer_1" data-name="Layer 1"/>
  <g id="Layer_2" data-name="Layer 2">
    <g id="Layer_1-2" data-name="Layer 1">
      <path class="cls-1" d="M61.94,5.44l14.33,22.5c.87,1.36,2.21,2.34,3.77,2.74l25.83,6.67c4.51,1.16,6.28,6.62,3.32,10.21l-16.97,20.58c-1.03,1.24-1.54,2.83-1.44,4.44l1.63,26.63c.29,4.65-4.35,8.01-8.68,6.31l-24.82-9.78c-1.5-.59-3.17-.59-4.67,0l-24.82,9.78c-4.33,1.71-8.97-1.66-8.68-6.31l1.63-26.63c.1-1.61-.42-3.19-1.44-4.44L3.96,47.57c-2.96-3.59-1.19-9.04,3.32-10.21l25.83-6.67c1.56-.4,2.91-1.38,3.77-2.74L51.21,5.44c2.5-3.93,8.23-3.93,10.73,0Z"/>
    </g>
  </g>
</svg>